<svg id="Layer_1" data-name="Layer 1" xmlns="http://www.w3.org/2000/svg" viewBox="0 0 926.05 326.36"><defs><style>.cls-1,.cls-2{fill:#2c7dff;stroke:#2c7dff;stroke-width:6px;}.cls-1{stroke-miterlimit:10;}</style></defs><title>findyourstars_logo_blue</title><path class="cls-1" d="M699.58,247.34H708a100,100,0,0,0,183.33,0h8.45a10,10,0,0,0,10-10V177.26a10,10,0,0,0-10-10h-8.45a100,100,0,0,0-183.33,0h-8.45a10,10,0,0,0-10,10v60.07A10,10,0,0,0,699.58,247.34Zm25-55.06c0-13.83,13.45-25,30-25h90.1c16.58,0,30,11.2,30,25v15a60.08,60.08,0,0,1-60.07,60.07h-30a60.08,60.08,0,0,1-60.07-60.07v-15Zm45.05,45.05,7.51-22.53,22.53-7.51-22.53-7.51-7.51-22.53-7.51,22.53-22.53,7.51,22.53,7.51Zm94.86,71a119.31,119.31,0,0,1-129.65,0c-42.24,4.44-75.34,39.8-75.34,83.22v6a30,30,0,0,0,30,30h50.06v-40a20,20,0,0,1,20-20h80.09a20,20,0,0,1,20,20v40h50.06a30,30,0,0,0,30-30v-6C939.85,348.08,906.75,312.73,864.51,308.29ZM829.73,387.5a10,10,0,1,0,10,10A10,10,0,0,0,829.73,387.5Zm-60.07,0a10,10,0,0,0-10,10v30h20v-30A10,10,0,0,0,769.66,387.5Z" transform="translate(-16.8 -104.18)"/><path class="cls-2" d="M69.47,170.55H36.52v21.12H64.06q3.83,0,5.72,1.72A5.9,5.9,0,0,1,71.66,198a5.78,5.78,0,0,1-1.91,4.56,8.37,8.37,0,0,1-5.69,1.69H36.52v27.2q0,5.18-2.34,7.69a7.84,7.84,0,0,1-6,2.51,7.86,7.86,0,0,1-6.05-2.53q-2.34-2.53-2.34-7.66V167.9A13.91,13.91,0,0,1,20.87,162a6.64,6.64,0,0,1,3.35-3.32,14.09,14.09,0,0,1,5.83-1H69.47q4,0,5.94,1.77a6,6,0,0,1,1.94,4.65,6.06,6.06,0,0,1-1.94,4.7Q73.46,170.55,69.47,170.55Z" transform="translate(-16.8 -104.18)"/><path class="cls-2" d="M90.47,231.43v-65q0-5.07,2.31-7.6a7.7,7.7,0,0,1,6-2.53,8,8,0,0,1,6.11,2.51q2.34,2.51,2.34,7.63v65q0,5.12-2.34,7.66a7.93,7.93,0,0,1-6.11,2.53,7.69,7.69,0,0,1-5.94-2.56Q90.47,236.5,90.47,231.43Z" transform="translate(-16.8 -104.18)"/><path class="cls-2" d="M147.69,166.27l32.16,48.66V165.82q0-4.79,2.06-7.18a6.94,6.94,0,0,1,5.55-2.39,7.15,7.15,0,0,1,5.69,2.39q2.08,2.39,2.08,7.18v64.93q0,10.87-9,10.87a11.94,11.94,0,0,1-4.05-.65,10.29,10.29,0,0,1-3.38-2.06,20,20,0,0,1-2.93-3.29q-1.35-1.89-2.7-3.86l-31.37-48.09V232q0,4.73-2.2,7.15a7.26,7.26,0,0,1-5.63,2.42,7.18,7.18,0,0,1-5.69-2.45q-2.14-2.45-2.14-7.12V168.35A18,18,0,0,1,127,162a9.08,9.08,0,0,1,3.55-4.14,9.65,9.65,0,0,1,5.35-1.6,8.76,8.76,0,0,1,6.67,2.7,20.36,20.36,0,0,1,2.48,3.21Q146.34,164.13,147.69,166.27Z" transform="translate(-16.8 -104.18)"/><path class="cls-2" d="M223.88,157.65h21.79a58.81,58.81,0,0,1,14.59,1.58,26.83,26.83,0,0,1,11,5.91q12.9,11,12.9,33.56a65.87,65.87,0,0,1-1.3,13.57,40.07,40.07,0,0,1-4,11.07,34.37,34.37,0,0,1-6.93,8.81,28.65,28.65,0,0,1-7.26,4.79,32.89,32.89,0,0,1-8.48,2.53,64.5,64.5,0,0,1-10.22.73H224.22q-4.56,0-6.87-1.38a6.41,6.41,0,0,1-3-3.89,24.67,24.67,0,0,1-.7-6.5V167.9q0-5.41,2.42-7.83T223.88,157.65Zm6.48,13.23v56H243q4.17,0,6.53-.23a20.39,20.39,0,0,0,4.9-1.13,13.32,13.32,0,0,0,4.39-2.53q8.39-7.1,8.39-24.44,0-12.22-3.69-18.3t-9.1-7.74a44.89,44.89,0,0,0-13.07-1.66h-11Z" transform="translate(-16.8 -104.18)"/><path class="cls-2" d="M346.15,231.43V205.24L326,174a65.48,65.48,0,0,1-3.75-6.59,10.05,10.05,0,0,1-1.1-4.11,6.56,6.56,0,0,1,2.22-5,7.73,7.73,0,0,1,5.49-2.08,6.7,6.7,0,0,1,5.21,1.94,58.15,58.15,0,0,1,5.32,7.74L354.82,191l15.6-25.06,2.37-3.89a24,24,0,0,1,2.11-3,8.41,8.41,0,0,1,2.56-2.11,7.38,7.38,0,0,1,3.44-.73,7.25,7.25,0,0,1,5.27,2.06,6.45,6.45,0,0,1,2.11,4.76,10,10,0,0,1-1.07,4.39,57.11,57.11,0,0,1-3.66,6.08l-20.67,31.71v26.19q0,5.12-2.37,7.66a8.46,8.46,0,0,1-12.05,0Q346.14,236.61,346.15,231.43Z" transform="translate(-16.8 -104.18)"/><path class="cls-2" d="M434.62,156.24q12.84,0,22,5.21a33.77,33.77,0,0,1,13.94,14.81q4.73,9.6,4.73,22.55a55.17,55.17,0,0,1-2.59,17.4A37.65,37.65,0,0,1,465,229.79a34,34,0,0,1-12.73,8.79,50.17,50.17,0,0,1-34.63-.08,34.39,34.39,0,0,1-12.78-8.81A37.64,37.64,0,0,1,397.08,216a55.25,55.25,0,0,1-2.62-17.29,53.36,53.36,0,0,1,2.73-17.46,37.44,37.44,0,0,1,7.91-13.52,34.21,34.21,0,0,1,12.61-8.53A45.42,45.42,0,0,1,434.62,156.24Zm23.77,42.46A38.74,38.74,0,0,0,455.46,183a21.87,21.87,0,0,0-8.36-10.05,23,23,0,0,0-12.47-3.41,22.59,22.59,0,0,0-9.26,1.89,20.36,20.36,0,0,0-7.32,5.49,26.23,26.23,0,0,0-4.84,9.21,41.62,41.62,0,0,0-1.77,12.59,42.64,42.64,0,0,0,1.77,12.73,26.08,26.08,0,0,0,5,9.43,21,21,0,0,0,7.43,5.6,23.48,23.48,0,0,0,21-1.35,22.19,22.19,0,0,0,8.56-9.91Q458.38,208.51,458.38,198.71Z" transform="translate(-16.8 -104.18)"/><path class="cls-2" d="M489.75,206.08v-39.7q0-5.07,2.28-7.6a7.68,7.68,0,0,1,6-2.53,7.88,7.88,0,0,1,6.17,2.53q2.28,2.53,2.28,7.6V207A37,37,0,0,0,508,218.56a13.36,13.36,0,0,0,5.49,7.21q3.94,2.56,11,2.56,9.8,0,13.85-5.21t4.05-15.8V166.38q0-5.12,2.25-7.63a7.7,7.7,0,0,1,6-2.51,8,8,0,0,1,6.11,2.51q2.34,2.51,2.34,7.63v39.7a58.73,58.73,0,0,1-1.89,16.16,25,25,0,0,1-7.12,11.38,27.66,27.66,0,0,1-10.47,6.08,45.86,45.86,0,0,1-14,1.91,57.59,57.59,0,0,1-16.39-2.06,26.22,26.22,0,0,1-11.21-6.36,25.65,25.65,0,0,1-6.36-11A56.14,56.14,0,0,1,489.75,206.08Z" transform="translate(-16.8 -104.18)"/><path class="cls-2" d="M599.74,204.9h-5.86v26.52q0,5.24-2.31,7.72a7.86,7.86,0,0,1-6,2.48,7.68,7.68,0,0,1-6.2-2.59q-2.2-2.59-2.2-7.6V167.9q0-5.41,2.42-7.83t7.83-2.42h27.2a82.8,82.8,0,0,1,9.63.48,24.24,24.24,0,0,1,7.21,1.94,20.88,20.88,0,0,1,6.87,4.67,20.48,20.48,0,0,1,4.53,7.07,23.56,23.56,0,0,1,1.55,8.53q0,9.24-5.21,14.75t-15.8,7.83a30.59,30.59,0,0,1,8.5,7,70.93,70.93,0,0,1,7.24,9.83,73,73,0,0,1,5,9.4q1.77,4.2,1.77,5.77a5.9,5.9,0,0,1-1,3.24,7.31,7.31,0,0,1-2.84,2.53,9,9,0,0,1-4.17.93,8.12,8.12,0,0,1-4.73-1.32,12.7,12.7,0,0,1-3.29-3.35q-1.38-2-3.75-6l-6.7-11.15a61.39,61.39,0,0,0-6.45-9.35,15.92,15.92,0,0,0-5.77-4.39A19.85,19.85,0,0,0,599.74,204.9Zm9.57-34.69H593.88v22.7h15a41.92,41.92,0,0,0,10.14-1,11.89,11.89,0,0,0,6.28-3.55,10.2,10.2,0,0,0,2.17-6.9,10.67,10.67,0,0,0-1.75-6.05,10.56,10.56,0,0,0-4.84-3.91Q617.93,170.21,609.31,170.21Z" transform="translate(-16.8 -104.18)"/><path class="cls-2" d="M198.2,353.83a24.26,24.26,0,0,1-3.86,13.46,25.63,25.63,0,0,1-11.29,9.35A42.32,42.32,0,0,1,165.43,380q-12.22,0-20.16-4.62a26.85,26.85,0,0,1-9.15-8.87,20.13,20.13,0,0,1-3.52-10.78,7.31,7.31,0,0,1,7.49-7.38,6.36,6.36,0,0,1,4.48,1.69,13.29,13.29,0,0,1,3.13,5,33.47,33.47,0,0,0,3.41,6.59,13.79,13.79,0,0,0,5.15,4.36,19,19,0,0,0,8.73,1.72q7.43,0,12.08-3.46a10.42,10.42,0,0,0,4.65-8.64A9.14,9.14,0,0,0,179.2,349a16.17,16.17,0,0,0-6.48-3.91q-4-1.35-10.62-2.87a77.83,77.83,0,0,1-14.9-4.87,24.07,24.07,0,0,1-9.52-7.6,19.73,19.73,0,0,1-3.52-12,20.55,20.55,0,0,1,3.72-12.11,23.43,23.43,0,0,1,10.76-8.14,44.05,44.05,0,0,1,16.56-2.84,41,41,0,0,1,13.15,1.89,27.81,27.81,0,0,1,9.21,5,21,21,0,0,1,5.35,6.56,15.14,15.14,0,0,1,1.69,6.7,7.92,7.92,0,0,1-2.11,5.38,6.73,6.73,0,0,1-5.27,2.39,6.05,6.05,0,0,1-4.36-1.44,19.32,19.32,0,0,1-3.24-4.7,21.33,21.33,0,0,0-5.41-7.29q-3.15-2.62-10.14-2.62-6.48,0-10.45,2.84t-4,6.84A6.93,6.93,0,0,0,151,320.5a11.37,11.37,0,0,0,3.72,3.1,25,25,0,0,0,4.79,2q2.42,0.73,8,2.14a126,126,0,0,1,12.64,3.6,38.44,38.44,0,0,1,9.63,4.79,19.7,19.7,0,0,1,6.19,7.12A22.81,22.81,0,0,1,198.2,353.83Z" transform="translate(-16.8 -104.18)"/><path class="cls-2" d="M266,309.85H247.76v60q0,5.18-2.31,7.69a7.75,7.75,0,0,1-6,2.51,7.86,7.86,0,0,1-6.05-2.53q-2.34-2.53-2.34-7.66v-60H212.85q-4.28,0-6.36-1.89a6.4,6.4,0,0,1-2.08-5,6.33,6.33,0,0,1,2.17-5.07q2.17-1.86,6.28-1.86H266q4.34,0,6.45,1.92a6.44,6.44,0,0,1,2.11,5,6.32,6.32,0,0,1-2.14,5Q270.29,309.85,266,309.85Z" transform="translate(-16.8 -104.18)"/><path class="cls-2" d="M330,369.27L326.1,358.9H292.53l-3.94,10.59q-2.31,6.19-3.94,8.36T279.3,380a7.84,7.84,0,0,1-5.58-2.31,7.07,7.07,0,0,1-2.42-5.24,11.67,11.67,0,0,1,.56-3.49q0.56-1.8,1.86-5l21.12-53.61,2.17-5.55a28.07,28.07,0,0,1,2.7-5.38,11,11,0,0,1,3.77-3.46,11.57,11.57,0,0,1,5.77-1.32,11.7,11.7,0,0,1,5.83,1.32,11.22,11.22,0,0,1,3.77,3.41,23.94,23.94,0,0,1,2.42,4.48q1,2.4,2.51,6.39l21.57,53.28q2.53,6.08,2.53,8.84a7.32,7.32,0,0,1-2.39,5.27,7.87,7.87,0,0,1-5.77,2.39,7.49,7.49,0,0,1-3.38-.7A6.92,6.92,0,0,1,334,377.4a17.59,17.59,0,0,1-2.06-3.72Q330.83,371.18,330,369.27Zm-33.11-22.92h24.67l-12.45-34.07Z" transform="translate(-16.8 -104.18)"/><path class="cls-2" d="M382.64,343.3h-5.86v26.53q0,5.24-2.31,7.71a7.86,7.86,0,0,1-6,2.48,7.68,7.68,0,0,1-6.19-2.59q-2.2-2.59-2.2-7.6V306.3q0-5.41,2.42-7.83t7.83-2.42h27.2a82.81,82.81,0,0,1,9.63.48,24.26,24.26,0,0,1,7.21,1.94,20.88,20.88,0,0,1,6.87,4.67,20.49,20.49,0,0,1,4.53,7.07,23.56,23.56,0,0,1,1.55,8.53q0,9.24-5.21,14.75t-15.8,7.83a30.6,30.6,0,0,1,8.5,7,70.85,70.85,0,0,1,7.24,9.83,72.94,72.94,0,0,1,5,9.4q1.77,4.2,1.77,5.77a5.9,5.9,0,0,1-1,3.24,7.31,7.31,0,0,1-2.84,2.53,9,9,0,0,1-4.17.93A8.13,8.13,0,0,1,416,378.7a12.72,12.72,0,0,1-3.29-3.35q-1.38-2-3.74-6l-6.7-11.15a61.41,61.41,0,0,0-6.45-9.35,15.91,15.91,0,0,0-5.77-4.39A19.83,19.83,0,0,0,382.64,343.3Zm9.57-34.69H376.78v22.7h15a41.93,41.93,0,0,0,10.14-1,11.88,11.88,0,0,0,6.28-3.55,10.2,10.2,0,0,0,2.17-6.9,10.67,10.67,0,0,0-1.75-6.05,10.56,10.56,0,0,0-4.84-3.91Q400.83,308.61,392.21,308.61Z" transform="translate(-16.8 -104.18)"/><path class="cls-2" d="M505.86,353.83A24.26,24.26,0,0,1,502,367.29a25.63,25.63,0,0,1-11.29,9.35A42.32,42.32,0,0,1,473.08,380q-12.22,0-20.16-4.62a26.85,26.85,0,0,1-9.15-8.87,20.13,20.13,0,0,1-3.52-10.78,7.31,7.31,0,0,1,7.49-7.38,6.36,6.36,0,0,1,4.48,1.69,13.29,13.29,0,0,1,3.13,5,33.47,33.47,0,0,0,3.41,6.59A13.79,13.79,0,0,0,463.9,366a19,19,0,0,0,8.73,1.72q7.43,0,12.08-3.46a10.42,10.42,0,0,0,4.65-8.64,9.14,9.14,0,0,0-2.51-6.67,16.18,16.18,0,0,0-6.48-3.91q-4-1.35-10.62-2.87a77.83,77.83,0,0,1-14.9-4.87,24.07,24.07,0,0,1-9.52-7.6,19.73,19.73,0,0,1-3.52-12,20.55,20.55,0,0,1,3.72-12.11,23.43,23.43,0,0,1,10.76-8.14,44.05,44.05,0,0,1,16.56-2.84A41,41,0,0,1,486,296.53a27.81,27.81,0,0,1,9.21,5,21,21,0,0,1,5.35,6.56,15.14,15.14,0,0,1,1.69,6.7,7.92,7.92,0,0,1-2.11,5.38,6.73,6.73,0,0,1-5.27,2.39,6.05,6.05,0,0,1-4.36-1.44,19.31,19.31,0,0,1-3.24-4.7,21.34,21.34,0,0,0-5.41-7.29q-3.15-2.62-10.14-2.62-6.48,0-10.45,2.84t-4,6.84a6.93,6.93,0,0,0,1.35,4.28,11.37,11.37,0,0,0,3.72,3.1,25,25,0,0,0,4.79,2q2.42,0.73,8,2.14a126,126,0,0,1,12.64,3.6,38.43,38.43,0,0,1,9.63,4.79,19.7,19.7,0,0,1,6.19,7.12A22.81,22.81,0,0,1,505.86,353.83Z" transform="translate(-16.8 -104.18)"/></svg>